<?xml version="1.0" encoding="utf-8"?>
<!-- Generator: Adobe Illustrator 22.0.1, SVG Export Plug-In . SVG Version: 6.00 Build 0)  -->
<svg version="1.1" id="Layer_1" xmlns="http://www.w3.org/2000/svg" xmlns:xlink="http://www.w3.org/1999/xlink" x="0px" y="0px"
	 viewBox="0 0 200 200" style="enable-background:new 0 0 200 200;" xml:space="preserve">
<style type="text/css">
	.st0{fill:#FFFFFF;}
	.st1{fill:#231F20;}
</style>
<g>
	<g>
		<path class="st1" d="M69.8,103.9l12.2-0.1l0.5,50c0,1,0.8,1.8,1.8,1.8l20.6-0.2c1,0,1.8-0.8,1.8-1.8l-0.5-49.8l14-0.1
			c0.9,0,1.7-0.7,1.8-1.6l2-18.4c0.1-0.5-0.1-1-0.5-1.4c-0.3-0.4-0.8-0.6-1.3-0.6L106,81.8l-0.1-11.5c0-3.5,1.8-5.3,5.5-5.3
			l10.5-0.1c1,0,1.8-0.8,1.8-1.8l-0.2-16.9c0-1-0.8-1.8-1.8-1.8l-14.5,0.1c-0.1,0-0.3,0-0.7,0c-2.5,0-11.3,0.6-18.1,7
			c-7.6,7.1-6.4,15.5-6.2,17L82.4,82l-12.8,0.1c-1,0-1.8,0.8-1.8,1.8l0.2,18.2C68,103.1,68.8,103.9,69.8,103.9L69.8,103.9z
			 M69.8,103.9"/>
	</g>
	<path class="st1" d="M99.1,0C43.9,0.5-0.5,45.8,0,100.9s45.8,99.6,100.9,99.1c55.1-0.5,99.6-45.8,99.1-100.9
		C199.5,43.9,154.2-0.5,99.1,0z M100.8,188.5C52,188.9,12,149.6,11.5,100.8C11.1,52,50.4,12,99.2,11.5s88.8,38.9,89.3,87.6
		C188.9,148,149.6,188,100.8,188.5z"/>
</g>
</svg>
