<?xml version="1.0" encoding="utf-8"?>
<!-- Generator: Adobe Illustrator 22.0.1, SVG Export Plug-In . SVG Version: 6.00 Build 0)  -->
<svg version="1.1" id="Layer_1" xmlns="http://www.w3.org/2000/svg" xmlns:xlink="http://www.w3.org/1999/xlink" x="0px" y="0px"
	 viewBox="0 0 200 200" style="enable-background:new 0 0 200 200;" xml:space="preserve">
<style type="text/css">
	.st0{fill:#FFFFFF;}
	.st1{fill:#231F20;}
</style>
<g>
	<g>
		<path class="st1" d="M119.5,48h-39C62.6,48,48,62.6,48,80.5v39c0,17.9,14.6,32.5,32.5,32.5h39c17.9,0,32.5-14.6,32.5-32.5v-39
			C152,62.6,137.4,48,119.5,48z M142.2,119.5c0,12.5-10.2,22.7-22.7,22.7h-39c-12.5,0-22.7-10.2-22.7-22.7v-39
			C57.8,68,68,57.7,80.5,57.7h39c12.5,0,22.7,10.2,22.7,22.7V119.5z"/>
		<path class="st1" d="M100,74c-14.4,0-26,11.6-26,26s11.6,26,26,26s26-11.6,26-26S114.4,74,100,74z M100,116.2
			c-9,0-16.2-7.3-16.2-16.2c0-9,7.3-16.2,16.2-16.2s16.2,7.3,16.2,16.2C116.2,109,109,116.2,100,116.2z"/>
		<circle class="st1" cx="127.9" cy="72" r="3.5"/>
	</g>
	<path class="st1" d="M100,0C44.9,0,0,44.9,0,100s44.9,100,100,100s100-44.9,100-100S155.1,0,100,0z M100,188.5
		c-48.8,0-88.5-39.7-88.5-88.5S51.2,11.5,100,11.5s88.5,39.7,88.5,88.5S148.8,188.5,100,188.5z"/>
</g>
</svg>
