<?xml version="1.0" encoding="utf-8"?>
<!-- Generator: Adobe Illustrator 22.0.1, SVG Export Plug-In . SVG Version: 6.00 Build 0)  -->
<svg version="1.1" id="Layer_1" xmlns="http://www.w3.org/2000/svg" xmlns:xlink="http://www.w3.org/1999/xlink" x="0px" y="0px"
	 width="1150px" height="310px" viewBox="0 0 1150 310" style="enable-background:new 0 0 1150 310;" xml:space="preserve">
<style type="text/css">
	.st0{fill:#FFFFFF;}
</style>
<g>
	<path class="st0" d="M855.3,52.7l-79,204.6h56.6l14.3-35.6h73.5l13.3,35.6h57L913.6,52.7H855.3z M861.8,181.1l22.5-65.1l21.9,65.1
		H861.8z"/>
	<path class="st0" d="M149.6,82.4c-20.3-19.8-44.9-29.7-73.9-29.7H0v204.6h75.8c29,0,53.6-9.8,73.9-29.5
		C169.9,208,180,183.7,180,155S169.9,102.1,149.6,82.4z M108.6,197.3c-10.6,10.1-25,15.1-43.1,15.1h-12V97.9H66
		c18,0,32.2,5,42.6,15.2c10.6,10.2,15.9,24.1,15.9,41.9C124.4,173,119.1,187.1,108.6,197.3z"/>
	<polygon class="st0" points="793.1,52.7 651.3,52.7 651.3,97.9 695.4,97.9 695.4,257.3 748.9,257.3 748.9,97.9 793.1,97.9 	"/>
	<path class="st0" d="M386.6,75.8c-22-19.4-48.4-29.1-79.3-29.1c-31,0-57.4,9.7-79.4,29.2c-22.9,20-34.3,45.1-34.3,75.3
		c0,33,10.6,59.9,31.7,80.8c21.2,20.9,48.5,31.3,81.9,31.3c33.4,0,60.6-10.4,81.7-31.3c21.3-20.9,31.9-47.8,31.9-80.8
		C420.8,121,409.4,95.9,386.6,75.8z M349.2,194.2c-11.2,12-25.1,18-41.9,18s-30.7-6-41.7-17.8c-10.8-11.8-16.3-26.1-16.3-42.8
		c0-15,6-27.8,17.8-38.4c11.5-10.3,24.9-15.4,40.2-15.4c15.2,0,28.6,5.2,40.2,15.4c11.9,10.7,17.8,23.5,17.8,38.4
		C365.3,168.3,360,182.5,349.2,194.2z"/>
	<path class="st0" d="M542.2,35.2c22.9,0,42.3-14.8,49-35.2h-17.7c-5.8,11.3-17.6,19-31.3,19c-13.6,0-25.5-7.7-31.3-19h-17.7
		C499.9,20.4,519.3,35.2,542.2,35.2z"/>
	<path class="st0" d="M543.7,143.1v41.5h43.5c-1.1,11.5-5.6,20.2-13.5,26.3c-7.7,6.1-17.6,9.1-29.6,9.1c-16.7,0-30.1-6.7-40.2-20
		c-9.3-12-13.9-26.5-13.9-43.6c0-16.9,4.5-31.5,13.5-43.8c10.1-13.6,23.3-20.4,39.8-20.4c21.5,0,36.3,10.8,44.5,32.3l50.7-21
		c-17.7-37.9-48.6-56.8-92.7-56.8c-33.4,0-60.3,10-80.7,29.9c-20.4,19.9-30.6,46.4-30.6,79.4c0,32.1,10.1,58,30.4,77.8
		c20.3,19.7,46.7,29.5,79.1,29.5c37.2,0,65.5-13.3,84.8-39.8c8.5-11.6,14.2-24.5,17.2-38.6c2.2-10.1,3.5-24,3.9-41.8h-106H543.7z"/>
	<path class="st0" d="M1073.6,275c-22.8,0-42.1,14.7-48.7,35h17.6c5.7-11.2,17.5-18.9,31.1-18.9s25.3,7.7,31.1,18.9h17.6
		C1115.6,289.7,1096.3,275,1073.6,275z"/>
	<path class="st0" d="M1099.3,132.5l-13.7-4c-15.8-4.6-23.7-11.1-23.7-19.4c0-5.1,2.6-9.3,7.8-12.5c4.6-2.9,9.7-4.4,15.1-4.4
		c12.7,0,24.6,4.5,35.5,13.5l21.2-41c-19.9-11.2-41.3-16.7-64.2-16.9c-20.9,0-37.9,6.3-51.1,18.8c-13.2,12.5-19.8,29-19.8,49.5
		c0,17.9,5.1,31.2,15.3,39.8c7.3,6.2,20.7,12.1,40.3,17.6c9.5,2.7,16.3,5.1,20.4,7.3c8.1,4.3,12.1,9.7,12.1,16
		c0,6.6-2.8,11.7-8.2,15.5c-4.8,3.2-10.7,4.8-17.8,4.8c-15.4,0-31.2-7-47.4-21l-22.9,42.6c22.3,15.5,46.4,23.2,72.3,23.2
		c24.5,0,43.7-6.2,57.6-18.6c14.6-12.9,21.9-31.3,21.9-55.3C1150,161.1,1133.1,142.6,1099.3,132.5z"/>
</g>
</svg>
