<?xml version="1.0" encoding="utf-8"?>
<!-- Generator: Adobe Illustrator 22.0.1, SVG Export Plug-In . SVG Version: 6.00 Build 0)  -->
<svg version="1.1" id="Layer_1" xmlns="http://www.w3.org/2000/svg" xmlns:xlink="http://www.w3.org/1999/xlink" x="0px" y="0px"
	 viewBox="0 0 200 200" style="enable-background:new 0 0 200 200;" xml:space="preserve">
<style type="text/css">
	.st0{fill:#FFFFFF;}
	.st1{fill:#231F20;}
</style>
<path class="st0" d="M186.6,50C159,2.2,97.8-14.2,50,13.4C2.2,41-14.2,102.2,13.4,150c27.6,47.8,88.8,64.2,136.6,36.6
	C197.8,159,214.2,97.8,186.6,50L186.6,50z M143.8,175.9c-41.9,24.2-95.5,9.8-119.7-32.1c-24.2-41.9-9.8-95.5,32.1-119.7
	c41.9-24.2,95.5-9.8,119.7,32.1C200.1,98.1,185.7,151.7,143.8,175.9L143.8,175.9z M136,95.9L83.6,65.4c-4.8-2.8-8.6-0.6-8.6,5
	l0.3,60.6c0,5.5,3.9,7.8,8.7,5l51.9-30C140.7,103.2,140.8,98.7,136,95.9L136,95.9z M136,95.9"/>
</svg>
