<svg class="lds-spinner" width="200px"  height="200px"  xmlns="http://www.w3.org/2000/svg" xmlns:xlink="http://www.w3.org/1999/xlink" viewBox="0 0 100 100" preserveAspectRatio="xMidYMid" style="background: none;"><g transform="rotate(0 50 50)" class="">
  <rect x="45" y="5" rx="40.5" ry="4.5" width="10" height="30" fill="#a08b80" class="">
    <animate attributeName="opacity" values="1;0" keyTimes="0;1" dur="1s" begin="-0.9s" repeatCount="indefinite" class=""></animate>
  </rect>
</g><g transform="rotate(36 50 50)" class="">
  <rect x="45" y="5" rx="40.5" ry="4.5" width="10" height="30" fill="#a08b80" class="">
    <animate attributeName="opacity" values="1;0" keyTimes="0;1" dur="1s" begin="-0.8s" repeatCount="indefinite" class=""></animate>
  </rect>
</g><g transform="rotate(72 50 50)" class="">
  <rect x="45" y="5" rx="40.5" ry="4.5" width="10" height="30" fill="#a08b80" class="">
    <animate attributeName="opacity" values="1;0" keyTimes="0;1" dur="1s" begin="-0.7s" repeatCount="indefinite" class=""></animate>
  </rect>
</g><g transform="rotate(108 50 50)" class="">
  <rect x="45" y="5" rx="40.5" ry="4.5" width="10" height="30" fill="#a08b80" class="">
    <animate attributeName="opacity" values="1;0" keyTimes="0;1" dur="1s" begin="-0.6s" repeatCount="indefinite" class=""></animate>
  </rect>
</g><g transform="rotate(144 50 50)" class="">
  <rect x="45" y="5" rx="40.5" ry="4.5" width="10" height="30" fill="#a08b80" class="">
    <animate attributeName="opacity" values="1;0" keyTimes="0;1" dur="1s" begin="-0.5s" repeatCount="indefinite" class=""></animate>
  </rect>
</g><g transform="rotate(180 50 50)" class="">
  <rect x="45" y="5" rx="40.5" ry="4.5" width="10" height="30" fill="#a08b80" class="">
    <animate attributeName="opacity" values="1;0" keyTimes="0;1" dur="1s" begin="-0.4s" repeatCount="indefinite" class=""></animate>
  </rect>
</g><g transform="rotate(216 50 50)" class="">
  <rect x="45" y="5" rx="40.5" ry="4.5" width="10" height="30" fill="#a08b80" class="">
    <animate attributeName="opacity" values="1;0" keyTimes="0;1" dur="1s" begin="-0.3s" repeatCount="indefinite" class=""></animate>
  </rect>
</g><g transform="rotate(252 50 50)" class="">
  <rect x="45" y="5" rx="40.5" ry="4.5" width="10" height="30" fill="#a08b80" class="">
    <animate attributeName="opacity" values="1;0" keyTimes="0;1" dur="1s" begin="-0.2s" repeatCount="indefinite" class=""></animate>
  </rect>
</g><g transform="rotate(288 50 50)" class="">
  <rect x="45" y="5" rx="40.5" ry="4.5" width="10" height="30" fill="#a08b80" class="">
    <animate attributeName="opacity" values="1;0" keyTimes="0;1" dur="1s" begin="-0.1s" repeatCount="indefinite" class=""></animate>
  </rect>
</g><g transform="rotate(324 50 50)" class="">
  <rect x="45" y="5" rx="40.5" ry="4.5" width="10" height="30" fill="#a08b80" class="">
    <animate attributeName="opacity" values="1;0" keyTimes="0;1" dur="1s" begin="0s" repeatCount="indefinite" class=""></animate>
  </rect>
</g></svg>