<?xml version="1.0" encoding="utf-8"?>
<!-- Generator: Adobe Illustrator 22.0.1, SVG Export Plug-In . SVG Version: 6.00 Build 0)  -->
<svg version="1.1" id="Layer_1" xmlns="http://www.w3.org/2000/svg" xmlns:xlink="http://www.w3.org/1999/xlink" x="0px" y="0px"
	 viewBox="0 0 200 200" style="enable-background:new 0 0 200 200;" xml:space="preserve">
<style type="text/css">
	.st0{fill:#FFFFFF;}
	.st1{fill:#231F20;}
</style>
<g>
	<g>
		<path class="st1" d="M155.7,71.9c-3.8,1.7-7.9,2.8-12.2,3.4c4.4-2.6,7.7-6.8,9.3-11.7c-4.1,2.4-8.6,4.2-13.5,5.1
			c-3.8-4.1-9.4-6.7-15.5-6.7c-11.7,0-21.2,9.5-21.2,21.2c0,1.7,0.2,3.3,0.5,4.8C85.6,87.1,70,78.7,59.5,65.9
			c-1.8,3.1-2.9,6.8-2.9,10.7c0,7.4,3.8,13.9,9.4,17.6c-3.5-0.1-6.7-1.1-9.6-2.6v0.3c0,10.3,7.3,18.9,17,20.8
			c-1.8,0.5-3.7,0.7-5.6,0.7c-1.4,0-2.7-0.1-4-0.4c2.7,8.4,10.5,14.5,19.8,14.7c-7.3,5.7-16.4,9.1-26.4,9.1c-1.7,0-3.4-0.1-5-0.3
			c9.4,6,20.5,9.5,32.5,9.5c39,0,60.3-32.3,60.3-60.3l-0.1-2.7C149.3,79.9,152.9,76.2,155.7,71.9L155.7,71.9z M155.7,71.9"/>
	</g>
	<path class="st1" d="M100,0C44.9,0,0,44.9,0,100s44.9,100,100,100s100-44.9,100-100S155.1,0,100,0z M100,188.5
		c-48.8,0-88.5-39.7-88.5-88.5S51.2,11.5,100,11.5s88.5,39.7,88.5,88.5S148.8,188.5,100,188.5z"/>
</g>
</svg>
