<?xml version="1.0" encoding="utf-8"?>
<!-- Generator: Adobe Illustrator 22.0.1, SVG Export Plug-In . SVG Version: 6.00 Build 0)  -->
<svg version="1.1" id="Layer_1" xmlns="http://www.w3.org/2000/svg" xmlns:xlink="http://www.w3.org/1999/xlink" x="0px" y="0px"
	 viewBox="0 0 200 200" style="enable-background:new 0 0 200 200;" xml:space="preserve">
<style type="text/css">
	.st0{fill:#FFFFFF;}
	.st1{fill:#231F20;}
</style>
<g>
	<path class="st1" d="M151.6,67.4c-4-4.8-11.5-6.8-25.8-6.8H74.1c-14.6,0-22.2,2.1-26.2,7.2C44,72.8,44,80.1,44,90.3v19.4
		c0,19.7,4.7,29.7,30.1,29.7h51.7c12.4,0,19.2-1.7,23.6-6c4.5-4.4,6.5-11.5,6.5-23.7V90.3C156,79.6,155.7,72.2,151.6,67.4z
		 M115.9,102.7L92.4,115c-0.5,0.3-1.1,0.4-1.7,0.4c-0.6,0-1.3-0.2-1.9-0.5c-1.1-0.7-1.7-1.8-1.7-3.1V87.3c0-1.3,0.7-2.4,1.7-3.1
		c1.1-0.7,2.4-0.7,3.5-0.1l23.5,12.2c1.2,0.6,1.9,1.9,1.9,3.2C117.8,100.8,117.1,102.1,115.9,102.7z"/>
	<path class="st1" d="M100,0C44.9,0,0,44.9,0,100s44.9,100,100,100s100-44.9,100-100S155.1,0,100,0z M100,188.5
		c-48.8,0-88.5-39.7-88.5-88.5S51.2,11.5,100,11.5s88.5,39.7,88.5,88.5S148.8,188.5,100,188.5z"/>
</g>
</svg>
